<svg width="512" height="512" viewBox="0 0 512 512" fill="none" xmlns="http://www.w3.org/2000/svg">
  <!-- Background circle -->
  <circle cx="256" cy="256" r="240" fill="#3B82F6"/>

  <!-- Medicine bottle -->
  <rect x="176" y="180" width="160" height="220" rx="16" fill="white"/>
  <rect x="176" y="160" width="160" height="40" rx="8" fill="#E5E7EB"/>

  <!-- Medicine cross -->
  <rect x="236" y="260" width="40" height="100" rx="4" fill="#3B82F6"/>
  <rect x="206" y="290" width="100" height="40" rx="4" fill="#3B82F6"/>

  <!-- Measuring lines -->
  <rect x="196" y="220" width="30" height="2" fill="#9CA3AF"/>
  <rect x="196" y="240" width="30" height="2" fill="#9CA3AF"/>
  <rect x="196" y="260" width="30" height="2" fill="#9CA3AF"/>
  <rect x="196" y="280" width="30" height="2" fill="#9CA3AF"/>
  <rect x="196" y="300" width="30" height="2" fill="#9CA3AF"/>
  <rect x="196" y="320" width="30" height="2" fill="#9CA3AF"/>
  <rect x="196" y="340" width="30" height="2" fill="#9CA3AF"/>
  <rect x="196" y="360" width="30" height="2" fill="#9CA3AF"/>

  <!-- Calculator symbol (top right) -->
  <rect x="360" y="120" width="60" height="80" rx="6" fill="white" opacity="0.9"/>
  <rect x="370" y="130" width="40" height="20" rx="2" fill="#3B82F6"/>
  <rect x="370" y="155" width="18" height="15" rx="2" fill="#3B82F6"/>
  <rect x="392" y="155" width="18" height="15" rx="2" fill="#3B82F6"/>
  <rect x="370" y="175" width="18" height="15" rx="2" fill="#3B82F6"/>
  <rect x="392" y="175" width="18" height="15" rx="2" fill="#3B82F6"/>
</svg>